<?xml version="1.0" encoding="utf-8"?>
<!-- Generator: Adobe Illustrator 25.3.1, SVG Export Plug-In . SVG Version: 6.00 Build 0)  -->
<svg version="1.1" id="Layer_1" xmlns="http://www.w3.org/2000/svg" xmlns:xlink="http://www.w3.org/1999/xlink" x="0px" y="0px"
	 viewBox="0 0 288 288" style="enable-background:new 0 0 288 288;" xml:space="preserve">
<style type="text/css">
	.st0{fill-rule:evenodd;clip-rule:evenodd;fill:#3983C4;}
	.st1{fill:#3EC6F3;}
</style>
<g>
	<path class="st0" d="M287,3.3c-25.9,16.9-52,36.6-77.9,59.5c-22.2-18.9-51.4-29.4-82.9-29.4c-34.7,0-66.6,12.8-89.5,35.5
		C13.6,91.8,0.6,124,0.6,159.1c0,35.1,13,67.2,36.2,90.2c22.9,22.7,54.7,35.5,89.5,35.5c17.1,0,33.4-3.1,48.4-8.9
		c0.9-0.4,1.8-0.9,2.6-1.3c46.7-19,74.6-64.1,74.6-115.4c0-17.1-3.1-33.4-8.9-48.4c-0.4-0.9-0.8-1.7-1.3-2.6
		c-0.6-1.4-1.2-2.9-1.8-4.3c15.8-14,31.5-26.8,47.2-38.3V3.3z M239.8,103.8c-7.3-16.2-17.9-30-30.7-40.9
		c-28.4,25-56.7,53.9-84.6,87.1c-1.1-1-2.2-2-3.3-3c-14.5-12.8-34.9-29.4-57.7-43.3l-26.6,43.5c19.3,11.8,37.2,26.2,50.5,38
		c6.6,5.8,11.9,10.9,15.6,14.5c1.8,1.8,3.2,3.2,4.2,4.1c0.5,0.5,0.8,0.8,1,1l0.2,0.2l0,0l0,0l20.3,21.3l18.2-23.1
		C177.5,164.4,208.7,131.6,239.8,103.8z"/>
	<path class="st1" d="M287,3.3c-25.9,16.9-52,36.6-77.9,59.5c12.9,11,23.4,24.7,30.7,40.9c15.8-14,31.5-26.8,47.2-38.3V3.3z"/>
</g>
</svg>
